<svg viewBox="0 0 72 72" fill="none" xmlns="http://www.w3.org/2000/svg">
  <path d="M47.371 19.056h7.267q1.8 0 3.375.432 1.574.433 2.734 1.28a5.9 5.9 0 0 1 1.834 2.06q.675 1.21.675 2.786 0 1.557-.658 2.716a5.7 5.7 0 0 1-1.713 1.92 7.6 7.6 0 0 1-2.405 1.143q-1.35.363-2.751.363-.606 0-1.264-.017-.657-.035-1.263-.087a24 24 0 0 1-1.124-.12 12 12 0 0 1-.848-.139V42h-3.86zm3.859 11.04q.657.224 1.401.38a8.3 8.3 0 0 0 1.523.138q1.245 0 2.18-.363a4.5 4.5 0 0 0 1.557-1.021q.623-.657.918-1.523a5.6 5.6 0 0 0 .311-1.868q0-1.16-.398-2.094a4.6 4.6 0 0 0-1.107-1.592 4.75 4.75 0 0 0-1.644-1.038 5.5 5.5 0 0 0-2.007-.364H51.23zm-23.896-7.804v1.285h-7.175v18.534h-3.333V23.577H9.651v-1.285zM11.277 50.889h.34v1.213q.545-.61 1.13-.909.586-.304 1.19-.304.316 0 .586.14.275.141.48.387t.322.58q.118.328.118.703V57h-1.19v-4.096q0-.299-.07-.521a1.1 1.1 0 0 0-.2-.381.8.8 0 0 0-.304-.229.9.9 0 0 0-.38-.082q-.189 0-.4.065a2.5 2.5 0 0 0-.433.181q-.216.113-.433.27a4 4 0 0 0-.416.352V57H10.42v-5.777zM25.965 57a1.15 1.15 0 0 1-.399-.328.8.8 0 0 1-.158-.492q-.211.158-.416.328-.2.17-.44.31a2.5 2.5 0 0 1-.527.223 2.3 2.3 0 0 1-.668.088q-.351 0-.639-.117a1.4 1.4 0 0 1-.48-.31 1.5 1.5 0 0 1-.305-.475 1.6 1.6 0 0 1-.105-.592q0-.387.152-.697.152-.311.416-.551.27-.246.621-.434.353-.193.75-.34.4-.152.82-.27.423-.116.82-.216v-.375q0-.41-.058-.692-.059-.28-.181-.45a.65.65 0 0 0-.317-.247 1.2 1.2 0 0 0-.45-.076 1.1 1.1 0 0 0-.464.1q-.21.099-.375.27-.158.164-.264.392a1.8 1.8 0 0 0-.134.474h-1.09a1.5 1.5 0 0 1 .264-.691q.223-.304.556-.51.335-.21.756-.322.427-.111.885-.111.586 0 .984.117.399.111.639.316t.34.504q.105.293.105.65v3.704q0 .275.158.492.165.21.399.328zm-.557-3.492q-.258.082-.533.187-.276.105-.54.24-.263.13-.503.282t-.422.328q-.182.175-.287.37a.83.83 0 0 0-.106.403q0 .224.082.422.082.194.217.346.136.147.31.234a.85.85 0 0 0 .364.082q.2 0 .38-.052.183-.053.352-.141.17-.093.34-.211t.346-.252zm8.67-2.62h.34v1.243q.228-.246.516-.469a4.4 4.4 0 0 1 .591-.398q.305-.176.61-.276.304-.1.58-.1.264 0 .533.094a1.82 1.82 0 0 1 .902.668q.17.229.223.504.147-.264.404-.492.264-.233.58-.404a3.3 3.3 0 0 1 .668-.27q.358-.1.698-.1t.633.153q.298.146.521.404.223.252.351.598.13.34.13.727V57h-1.19v-4.066q0-.252-.088-.475a1.3 1.3 0 0 0-.228-.399 1.1 1.1 0 0 0-.346-.269.9.9 0 0 0-.41-.1 2 2 0 0 0-.504.07 2.3 2.3 0 0 0-.897.458 1.4 1.4 0 0 0-.298.328V57h-1.19v-4.066q0-.252-.088-.475a1.3 1.3 0 0 0-.234-.399 1.1 1.1 0 0 0-.346-.269.9.9 0 0 0-.416-.1q-.228 0-.475.07a2.6 2.6 0 0 0-.902.463 1.7 1.7 0 0 0-.328.323V57h-1.195v-5.777zm17.606 6.24q-.61 0-1.148-.228a2.98 2.98 0 0 1-1.565-1.541 2.8 2.8 0 0 1-.228-1.13q0-.721.21-1.33.211-.615.598-1.061a2.8 2.8 0 0 1 .926-.697 2.9 2.9 0 0 1 1.213-.252q.586 0 1.078.21.492.206.844.557.357.345.55.803.2.457.2.955H49.89q0 .604.152 1.12.159.515.44.89.28.375.668.586.385.21.85.21.386 0 .744-.122a2.7 2.7 0 0 0 .644-.334q.292-.205.498-.47a1.6 1.6 0 0 0 .287-.544l.346.152a2.8 2.8 0 0 1-.416.867q-.288.405-.674.71-.38.298-.832.474a2.5 2.5 0 0 1-.914.176m1.184-4.194q0-.34-.123-.633a1.54 1.54 0 0 0-.82-.844 1.5 1.5 0 0 0-.604-.123q-.27 0-.516.123-.246.118-.44.334a1.83 1.83 0 0 0-.468 1.137zm9.836 3.779q.24 0 .445-.07a1.2 1.2 0 0 0 .352-.2.9.9 0 0 0 .234-.28.74.74 0 0 0 .082-.335.83.83 0 0 0-.14-.48 1.3 1.3 0 0 0-.364-.364 3 3 0 0 0-.51-.299l-.586-.275q-.298-.147-.585-.304a2.7 2.7 0 0 1-.516-.381 1.8 1.8 0 0 1-.363-.498 1.6 1.6 0 0 1-.135-.668q0-.359.152-.662.152-.31.422-.534.276-.222.65-.345.376-.13.82-.13.3 0 .557.042.258.04.504.158.252.117.498.34.246.216.522.568l-.44.393q-.34-.557-.761-.827a1.6 1.6 0 0 0-.891-.275q-.258 0-.469.065-.21.058-.363.17a.8.8 0 0 0-.234.251.6.6 0 0 0-.082.311q0 .27.146.469.152.2.398.363.247.159.557.293l.639.275q.328.141.639.305.316.164.562.38.246.213.393.493.152.282.152.656 0 .38-.14.715-.142.328-.428.574-.281.24-.71.381-.427.14-1.007.14-.264 0-.545-.04a2.4 2.4 0 0 1-.557-.158 2.7 2.7 0 0 1-.562-.34 3 3 0 0 1-.551-.569l.486-.439q.217.305.416.521.2.211.404.352.212.135.428.2.224.057.48.058" fill="currentColor"/>
  <g filter="url(#a)">
    <circle cx="36" cy="32" r="10" fill="url(#b)"/>
  </g>
  <defs>
    <linearGradient id="b" x1="31" y1="42" x2="41" y2="22" gradientUnits="userSpaceOnUse">
      <stop stop-color="#9B44F2"/>
      <stop offset="1" stop-color="#6941C6"/>
    </linearGradient>
    <filter id="a" x="23" y="20" width="26" height="26" filterUnits="userSpaceOnUse" color-interpolation-filters="sRGB">
      <feFlood flood-opacity="0" result="BackgroundImageFix"/>
      <feColorMatrix in="SourceAlpha" values="0 0 0 0 0 0 0 0 0 0 0 0 0 0 0 0 0 0 127 0" result="hardAlpha"/>
      <feOffset dy="1"/>
      <feGaussianBlur stdDeviation="1"/>
      <feColorMatrix values="0 0 0 0 0.0627451 0 0 0 0 0.0941176 0 0 0 0 0.156863 0 0 0 0.06 0"/>
      <feBlend in2="BackgroundImageFix" result="effect1_dropShadow_148_1115"/>
      <feColorMatrix in="SourceAlpha" values="0 0 0 0 0 0 0 0 0 0 0 0 0 0 0 0 0 0 127 0" result="hardAlpha"/>
      <feOffset dy="1"/>
      <feGaussianBlur stdDeviation="1.5"/>
      <feColorMatrix values="0 0 0 0 0.0627451 0 0 0 0 0.0941176 0 0 0 0 0.156863 0 0 0 0.1 0"/>
      <feBlend in2="effect1_dropShadow_148_1115" result="effect2_dropShadow_148_1115"/>
      <feBlend in="SourceGraphic" in2="effect2_dropShadow_148_1115" result="shape"/>
    </filter>
  </defs>
</svg>
