<svg viewBox="0 0 720 967" fill="none" xmlns="http://www.w3.org/2000/svg" stroke-width="2"
  stroke="currentColor">
  <path transform="rotate(-70.004 269.207 -336.45)skewX(-.008)" d="M0-1h30.101" />
  <path transform="rotate(-60.006 305.265 -467.408)skewX(-.012)" d="M0-1h30.099" />
  <path transform="rotate(-50.006 342.817 -651.951)skewX(-.013)" d="M0-1h30.098" />
  <path transform="rotate(-40.007 381.645 -929.521)skewX(-.013)" d="M0-1h30.097" />
  <path transform="rotate(-139.993 27.233 5.837)skewX(.013)" d="M0-1h30.097" />
  <path transform="rotate(-129.993 61.56 -10.633)skewX(.013)" d="M0-1h30.098" />
  <path transform="rotate(-119.994 95.726 -34.847)skewX(.012)" d="M0-1h30.099" />
  <path transform="rotate(-109.996 130.012 -67.512)skewX(.009)" d="M0-1h30.1" />
  <path transform="rotate(-99.998 164.556 -110.376)skewX(.004)" d="M0-1h30.101" />
  <path d="M364.616 32.519V2.418" />
  <path transform="rotate(-80.002 234.08 -239.604)skewX(-.004)" d="M0-1h30.101" />
  <path transform="rotate(-70.004 272.966 -261.767)skewX(-.009)" d="M0-1h30.1" />
  <path transform="rotate(-60.006 317.02 -382.432)skewX(-.012)" d="M0-1h30.099" />
  <path transform="rotate(-50.007 365.434 -553.012)skewX(-.013)" d="M0-1h30.098" />
  <path transform="rotate(-40.007 420.145 -810.187)skewX(-.013)" d="M0-1h30.097" />
  <path transform="rotate(-30.006 487.22 -1238.439)skewX(-.011)" d="M0-1h30.096" />
  <path transform="rotate(-129.993 39.991 31.495)skewX(.013)" d="M0-1h30.098" />
  <path transform="rotate(-119.994 77.08 11.038)skewX(.012)" d="M0-1h30.099" />
  <path transform="rotate(-109.996 114.597 -17.463)skewX(.009)" d="M0-1h30.101" />
  <path transform="rotate(-99.998 152.799 -55.627)skewX(.005)" d="M0-1h30.101" />
  <path d="M296.898 85.195V55.093" />
  <path transform="rotate(-80.002 231.613 -172.922)skewX(-.004)" d="M0-1h30.101" />
  <path transform="rotate(-70.004 276.72 -187.077)skewX(-.009)" d="M0-1h30.1" />
  <path transform="rotate(-60.006 328.781 -297.463)skewX(-.012)" d="M0-1h30.099" />
  <path transform="rotate(-50.007 388.053 -454.085)skewX(-.013)" d="M0-1h30.098" />
  <path transform="rotate(-40.007 458.64 -690.852)skewX(-.013)" d="M0-1h30.097" />
  <path transform="rotate(-30.006 551.64 -1085.78)skewX(-.012)" d="M0-1h30.096" />
  <path transform="rotate(-20.004 705.688 -1871.992)skewX(-.008)" d="M0-1h30.095" />
  <path transform="rotate(-119.994 58.43 56.928)skewX(.011)" d="M0-1h30.099" />
  <path transform="rotate(-109.996 99.188 32.583)skewX(.009)" d="M0-1h30.1" />
  <path transform="rotate(-99.998 141.047 -.88)skewX(.005)" d="M0-1h30.101" />
  <path d="M229.191 137.873v-30.101" />
  <path transform="rotate(-80.002 229.143 -106.233)skewX(-.005)" d="M0-1h30.101" />
  <path transform="rotate(-70.004 280.478 -112.395)skewX(-.009)" d="M0-1h30.1" />
  <path transform="rotate(-60.006 340.538 -212.486)skewX(-.012)" d="M0-1h30.099" />
  <path transform="rotate(-50.007 410.67 -355.147)skewX(-.013)" d="M0-1h30.098" />
  <path transform="rotate(-40.007 497.135 -571.505)skewX(-.013)" d="M0-1h30.097" />
  <path transform="rotate(-30.006 616.066 -933.123)skewX(-.011)" d="M0-1h30.096" />
  <path transform="rotate(-20.004 821.178 -1653.699)skewX(-.009)" d="M0-1h30.095" />
  <path transform="rotate(-10.002 1359.854 -3807.352)skewX(-.005)" d="M0-1h30.095" />
  <path transform="rotate(-109.996 83.773 82.63)skewX(.009)" d="M0-1h30.1" />
  <path transform="rotate(-99.998 129.29 53.871)skewX(.005)" d="M0-1h30.101" />
  <path d="M161.474 190.551V160.45" />
  <path transform="rotate(-80.002 226.677 -39.55)skewX(-.005)" d="M0-1h30.101" />
  <path transform="rotate(-70.004 284.233 -37.705)skewX(-.009)" d="M0-1h30.1" />
  <path transform="rotate(-60.006 352.297 -127.518)skewX(-.012)" d="M0-1h30.099" />
  <path transform="rotate(-50.006 433.293 -256.22)skewX(-.013)" d="M0-1h30.098" />
  <path transform="rotate(-40.007 535.631 -452.17)skewX(-.013)" d="M0-1h30.097" />
  <path transform="rotate(-30.006 680.487 -780.448)skewX(-.011)" d="M0-1h30.096" />
  <path transform="rotate(-20.004 936.657 -1435.382)skewX(-.009)" d="M0-1h30.095" />
  <path transform="rotate(-10.002 1626.983 -3394.097)skewX(-.004)" d="M0-1h30.095" />
  <path transform="rotate(-99.998 117.538 108.617)skewX(.005)" d="M0-1h30.101" />
  <path d="M93.766 243.227v-30.102" />
  <path transform="rotate(-80.002 224.206 27.137)skewX(-.005)" d="M0-1h30.101" />
  <path d="M719.226 229.177h-30.094" />
  <path transform="rotate(-70.004 287.99 36.978)skewX(-.009)" d="M0-1h30.101" />
  <path transform="rotate(-60.006 364.054 -42.541)skewX(-.011)" d="M0-1h30.099" />
  <path transform="rotate(-50.006 455.908 -157.282)skewX(-.013)" d="M0-1h30.098" />
  <path transform="rotate(-40.007 574.126 -332.822)skewX(-.013)" d="M0-1h30.097" />
  <path transform="rotate(-30.006 744.908 -627.792)skewX(-.012)" d="M0-1h30.096" />
  <path transform="rotate(-20.004 1052.146 -1217.089)skewX(-.008)" d="M0-1h30.095" />
  <path transform="rotate(-10.002 1894.094 -2980.878)skewX(-.005)" d="M0-1h30.095" />
  <path d="M26.049 295.905v-30.101" />
  <path transform="rotate(-80.002 221.74 93.82)skewX(-.005)" d="M0-1h30.101" />
  <path d="M651.509 281.855h-30.094" />
  <path transform="rotate(-169.998 371.855 110.383)skewX(.005)" d="M0-1h30.095" />
  <path transform="rotate(-70.004 291.745 111.668)skewX(-.008)" d="M0-1h30.1" />
  <path transform="rotate(-60.006 375.814 42.427)skewX(-.011)" d="M0-1h30.099" />
  <path transform="rotate(-50.007 478.53 -58.354)skewX(-.013)" d="M0-1h30.098" />
  <path transform="rotate(-40.007 612.625 -213.488)skewX(-.013)" d="M0-1h30.097" />
  <path transform="rotate(-30.006 809.328 -475.117)skewX(-.012)" d="M0-1h30.096" />
  <path transform="rotate(-20.004 1167.627 -998.768)skewX(-.009)" d="M0-1h30.095" />
  <path transform="rotate(-10.002 2161.236 -2567.638)skewX(-.004)" d="M0-1h30.095" />
  <path transform="rotate(-80.002 219.27 160.508)skewX(-.005)" d="M0-1h30.101" />
  <path d="M583.801 334.531h-30.094" />
  <path transform="rotate(-169.998 340.301 139.685)skewX(.005)" d="M0-1h30.095" />
  <path transform="rotate(-159.996 388.843 106.284)skewX(.009)" d="M0-1h30.095" />
  <path transform="rotate(-70.004 295.504 186.352)skewX(-.009)" d="M0-1h30.101" />
  <path transform="rotate(-60.006 387.57 127.403)skewX(-.012)" d="M0-1h30.099" />
  <path transform="rotate(-50.007 501.145 40.582)skewX(-.013)" d="M0-1h30.098" />
  <path transform="rotate(-40.007 651.117 -94.14)skewX(-.013)" d="M0-1h30.097" />
  <path transform="rotate(-30.006 873.75 -322.46)skewX(-.011)" d="M0-1h30.096" />
  <path transform="rotate(-20.004 1283.11 -780.48)skewX(-.009)" d="M0-1h30.095" />
  <path transform="rotate(-10.002 2428.37 -2154.434)skewX(-.004)" d="M0-1h30.095" />
  <path transform="rotate(-149.994 410.864 100.894)skewX(.012)" d="M0-1h30.096" />
  <path d="M516.094 387.209h-30.095" />
  <path transform="rotate(-169.998 308.753 168.987)skewX(.005)" d="M0-1h30.095" />
  <path transform="rotate(-159.996 359.63 138.594)skewX(.009)" d="M0-1h30.095" />
  <path transform="rotate(-60.006 399.332 212.372)skewX(-.011)" d="M0-1h30.099" />
  <path transform="rotate(-50.007 523.766 139.51)skewX(-.013)" d="M0-1h30.098" />
  <path transform="rotate(-40.007 689.616 25.195)skewX(-.013)" d="M0-1h30.097" />
  <path transform="rotate(-30.006 938.17 -169.784)skewX(-.011)" d="M0-1h30.096" />
  <path transform="rotate(-20.004 1398.6 -562.163)skewX(-.008)" d="M0-1h30.095" />
  <path transform="rotate(-10.002 2695.488 -1741.18)skewX(-.004)" d="M0-1h30.095" />
  <path transform="rotate(-149.994 384.064 136.307)skewX(.011)" d="M0-1h30.096" />
  <path transform="rotate(-139.993 438.743 94.665)skewX(.013)" d="M0-1h30.097" />
  <path d="M448.377 439.885h-30.095" />
  <path transform="rotate(-169.998 277.2 198.287)skewX(.004)" d="M0-1h30.095" />
  <path transform="rotate(-159.996 330.42 170.904)skewX(.008)" d="M0-1h30.095" />
  <path transform="rotate(-50.007 546.384 238.449)skewX(-.013)" d="M0-1h30.098" />
  <path transform="rotate(-40.007 728.107 144.542)skewX(-.013)" d="M0-1h30.097" />
  <path transform="rotate(-30.006 1002.594 -17.126)skewX(-.011)" d="M0-1h30.096" />
  <path transform="rotate(-20.004 1514.089 -343.87)skewX(-.008)" d="M0-1h30.095" />
  <path transform="rotate(-10.002 2962.605 -1327.975)skewX(-.005)" d="M0-1h30.095" />
  <path transform="rotate(-149.994 357.27 171.719)skewX(.011)" d="M0-1h30.096" />
  <path transform="rotate(-139.993 414.473 133.329)skewX(.013)" d="M0-1h30.097" />
  <path transform="rotate(-129.994 473.061 86.06)skewX(.013)" d="M0-1h30.098" />
  <path d="M380.669 492.563h-30.094" />
  <path transform="rotate(-169.998 245.65 227.589)skewX(.005)" d="M0-1h30.095" />
  <path transform="rotate(-159.996 301.213 203.213)skewX(.008)" d="M0-1h30.095" />
  <path transform="rotate(-40.006 766.608 263.877)skewX(-.013)" d="M0-1h30.097" />
  <path transform="rotate(-30.006 1067.01 135.548)skewX(-.012)" d="M0-1h30.096" />
  <path transform="rotate(-20.004 1629.559 -125.553)skewX(-.009)" d="M0-1h30.095" />
  <path transform="rotate(-10.002 3229.76 -914.73)skewX(-.004)" d="M0-1h30.095" />
  <path transform="rotate(-149.994 330.47 207.131)skewX(.012)" d="M0-1h30.096" />
  <path transform="rotate(-139.993 390.208 171.992)skewX(.013)" d="M0-1h30.097" />
  <path transform="rotate(-129.993 451.487 128.189)skewX(.013)" d="M0-1h30.098" />
  <path transform="rotate(-119.994 514.903 74.314)skewX(.012)" d="M0-1h30.099" />
  <path d="M312.952 545.241h-30.094" />
  <path transform="rotate(-169.998 214.096 256.89)skewX(.004)" d="M0-1h30.095" />
  <path transform="rotate(-159.996 272 235.522)skewX(.009)" d="M0-1h30.095" />
  <path transform="rotate(-30.006 1131.436 288.206)skewX(-.012)" d="M0-1h30.096" />
  <path transform="rotate(-20.004 1745.057 92.74)skewX(-.008)" d="M0-1h30.095" />
  <path transform="rotate(-10.002 3496.854 -501.522)skewX(-.005)" d="M0-1h30.095" />
  <path transform="rotate(-149.994 303.675 242.543)skewX(.012)" d="M0-1h30.096" />
  <path transform="rotate(-139.993 365.937 210.657)skewX(.013)" d="M0-1h30.097" />
  <path transform="rotate(-129.993 429.916 170.317)skewX(.013)" d="M0-1h30.098" />
  <path transform="rotate(-119.994 496.252 120.203)skewX(.011)" d="M0-1h30.1" />
  <path transform="rotate(-109.996 566.13 58.888)skewX(.009)" d="M0-1h30.101" />
  <path d="M245.244 597.917H215.15" />
  <path transform="rotate(-169.998 182.547 286.191)skewX(.005)" d="M0-1h30.095" />
  <path transform="rotate(-159.996 242.79 267.833)skewX(.008)" d="M0-1h30.095" />
  <path transform="rotate(-20.004 1860.537 311.058)skewX(-.008)" d="M0-1h30.095" />
  <path transform="rotate(-10.002 3763.982 -88.268)skewX(-.005)" d="M0-1h30.095" />
  <path transform="rotate(-149.994 276.874 277.956)skewX(.011)" d="M0-1h30.096" />
  <path transform="rotate(-139.994 341.671 249.319)skewX(.013)" d="M0-1h30.097" />
  <path transform="rotate(-129.993 408.346 212.443)skewX(.013)" d="M0-1h30.098" />
  <path transform="rotate(-119.994 477.607 166.09)skewX(.011)" d="M0-1h30.099" />
  <path transform="rotate(-109.996 550.716 108.937)skewX(.009)" d="M0-1h30.1" />
  <path transform="rotate(-99.998 629.151 38.384)skewX(.005)" d="M0-1h30.101" />
  <path d="M177.527 650.595h-30.094" />
  <path transform="rotate(-169.998 150.994 315.493)skewX(.005)" d="M0-1h30.095" />
  <path transform="rotate(-159.996 213.577 300.142)skewX(.008)" d="M0-1h30.095" />
  <path transform="rotate(-10.002 4031.104 324.93)skewX(-.005)" d="M0-1h30.095" />
  <path transform="rotate(-149.994 250.08 313.367)skewX(.011)" d="M0-1h30.096" />
  <path transform="rotate(-139.993 317.401 287.983)skewX(.013)" d="M0-1h30.097" />
  <path transform="rotate(-129.993 386.772 254.573)skewX(.013)" d="M0-1h30.098" />
  <path transform="rotate(-119.994 458.957 211.979)skewX(.012)" d="M0-1h30.099" />
  <path transform="rotate(-109.996 535.305 158.982)skewX(.008)" d="M0-1h30.1" />
  <path transform="rotate(-99.998 617.399 93.13)skewX(.004)" d="M0-1h30.101" />
  <path d="M695.66 717.323v-30.102m-585.84 16.05H79.725" />
  <path transform="rotate(-169.998 119.445 344.794)skewX(.005)" d="M0-1h30.095" />
  <path transform="rotate(-159.996 184.368 332.452)skewX(.008)" d="M0-1h30.095" />
  <path transform="rotate(-149.994 223.28 348.78)skewX(.012)" d="M0-1h30.096" />
  <path transform="rotate(-139.993 293.135 326.645)skewX(.013)" d="M0-1h30.097" />
  <path transform="rotate(-129.993 365.202 296.7)skewX(.013)" d="M0-1h30.098" />
  <path transform="rotate(-119.994 440.311 257.865)skewX(.012)" d="M0-1h30.099" />
  <path transform="rotate(-109.996 519.891 209.03)skewX(.009)" d="M0-1h30.101" />
  <path transform="rotate(-99.998 605.642 147.88)skewX(.004)" d="M0-1h30.101" />
  <path d="M627.943 769.999v-30.102" />
  <path transform="rotate(-80.002 805.178 -27.774)skewX(-.004)" d="M0-1h30.101" />
  <path d="M42.102 755.949H12.008" />
  <path transform="rotate(-169.998 87.89 374.096)skewX(.004)" d="M0-1h30.095" />
  <path transform="rotate(-159.996 155.156 364.762)skewX(.009)" d="M0-1h30.095" />
  <path transform="rotate(-70.004 931.203 -81.048)skewX(-.009)" d="M0-1h30.101" />
  <path transform="rotate(-149.994 196.485 384.191)skewX(.012)" d="M0-1h30.096" />
  <path transform="rotate(-139.994 268.865 365.31)skewX(.013)" d="M0-1h30.097" />
  <path transform="rotate(-129.993 343.627 338.83)skewX(.013)" d="M0-1h30.098" />
  <path transform="rotate(-119.994 421.661 303.754)skewX(.012)" d="M0-1h30.099" />
  <path transform="rotate(-109.996 504.48 259.075)skewX(.009)" d="M0-1h30.101" />
  <path transform="rotate(-99.998 593.89 202.627)skewX(.005)" d="M0-1h30.101" />
  <path d="M560.235 822.677v-30.101" />
  <path transform="rotate(-80.002 802.706 38.916)skewX(-.005)" d="M0-1h30.101" />
  <path transform="rotate(-169.998 56.342 403.396)skewX(.004)" d="M0-1h30.095" />
  <path transform="rotate(-159.996 125.947 397.07)skewX(.009)" d="M0-1h30.095" />
  <path transform="rotate(-70.004 934.962 -6.364)skewX(-.009)" d="M0-1h30.101" />
  <path transform="rotate(-60.006 1099.048 -156.745)skewX(-.011)" d="M0-1h30.1" />
  <path transform="rotate(-149.994 169.685 419.605)skewX(.012)" d="M0-1h30.096" />
  <path transform="rotate(-139.994 244.599 403.973)skewX(.013)" d="M0-1h30.097" />
  <path transform="rotate(-129.993 322.057 380.957)skewX(.013)" d="M0-1h30.098" />
  <path transform="rotate(-119.994 403.016 349.64)skewX(.012)" d="M0-1h30.099" />
  <path transform="rotate(-109.996 489.067 309.124)skewX(.009)" d="M0-1h30.101" />
  <path transform="rotate(-99.998 582.133 257.378)skewX(.005)" d="M0-1h30.101" />
  <path d="M492.518 875.355v-30.101" />
  <path transform="rotate(-80.002 800.241 105.598)skewX(-.005)" d="M0-1h30.101" />
  <path transform="rotate(-159.996 96.733 429.381)skewX(.008)" d="M0-1h30.095" />
  <path transform="rotate(-70.004 938.718 68.326)skewX(-.008)" d="M0-1h30.1" />
  <path transform="rotate(-60.006 1110.81 -71.778)skewX(-.011)" d="M0-1h30.099" />
  <path transform="rotate(-50.007 1332.986 -268.729)skewX(-.013)" d="M0-1h30.098" />
  <path transform="rotate(-149.994 142.89 455.016)skewX(.011)" d="M0-1h30.096" />
  <path transform="rotate(-139.994 220.328 442.637)skewX(.013)" d="M0-1h30.097" />
  <path transform="rotate(-129.993 300.481 423.086)skewX(.013)" d="M0-1h30.098" />
  <path transform="rotate(-119.994 384.366 395.53)skewX(.011)" d="M0-1h30.099" />
  <path transform="rotate(-109.996 473.657 359.17)skewX(.009)" d="M0-1h30.1" />
  <path transform="rotate(-99.998 570.38 312.124)skewX(.005)" d="M0-1h30.101" />
  <path d="M424.811 928.031V897.93" />
  <path transform="rotate(-80.002 797.77 172.285)skewX(-.005)" d="M0-1h30.101" />
  <path transform="rotate(-70.004 942.474 143.009)skewX(-.009)" d="M0-1h30.1" />
  <path transform="rotate(-60.006 1122.565 13.201)skewX(-.012)" d="M0-1h30.099" />
  <path transform="rotate(-50.007 1355.604 -169.79)skewX(-.013)" d="M0-1h30.098" />
  <path transform="rotate(-40.007 1680.223 -445.108)skewX(-.013)" d="M0-1h30.097" />
  <path transform="rotate(-139.993 196.064 481.3)skewX(.013)" d="M0-1h30.097" />
  <path transform="rotate(-129.993 278.912 465.214)skewX(.013)" d="M0-1h30.098" />
  <path transform="rotate(-119.994 365.72 441.416)skewX(.012)" d="M0-1h30.099" />
  <path transform="rotate(-109.996 458.241 409.217)skewX(.008)" d="M0-1h30.1" />
  <path transform="rotate(-99.998 558.624 366.875)skewX(.004)" d="M0-1h30.101" />
  <path d="M357.094 980.709v-30.102" />
  <path transform="rotate(-80.002 795.305 238.968)skewX(-.005)" d="M0-1h30.101" />
</svg>
