<svg width="1440" height="1346" viewBox="0 0 1440 1346" fill="none" xmlns="http://www.w3.org/2000/svg">
  <g opacity="1" clip-rule="evenodd" stroke="currentColor">
    <path d="M532.931 422.412c-.083-18.755-33.168-39.845-47.3-50.719-27.944-21.506-57.008-41.366-85.801-61.543-28.794-20.177-57.666-40.3-85.122-62.452-17.828-14.379-38.776-30.574-50.866-51.107-25.757-43.757 55.452-37.259 76.488-38.216 53.514-2.445 114.895-1.329 165.056-24.115 29.944-13.603 41.885-36.416 35.453-69.666-2.073-10.813-8.209-23.256-3.011-33.79 5.551-11.252 18.32-17.744 28.919-22.098 38.656-15.861 83.1-17.7 124-19.69 44.103-2.188 88.621-1.548 132.412-1.718 18.569-.07 37.962-7.11 55.645-12.831 23.181-7.499 46.087-15.922 69.077-24.066 50.575-17.875 102.689-36.7 156.199-41.24 33.51-2.845 70.13 1 96.17 25.74 13.07 12.42 19.91 30.886 27.46 47.289 9.15 19.816 17.93 39.824 27.67 59.328 31.37 62.818 76.16 124.203 148.85 127.288 11 .464 21.8-1.051 32.75-1.335 6.97-.175 13.17 1.603 15.76 9.298 6.52 19.302-13.96 49.773-22.36 65.088-18.38 33.523-39.11 65.542-58.53 98.392-12.84 21.725-35.08 51.414-35.32 77.81-.2 23.519 29.44 40.518 45.58 52.103 15.12 10.846 42.52 26.024 44.18 48.088.8 10.698-5.88 19.565-12.86 26.445-12.24 12.033-26.34 20.522-37.34 34.251-18.05 22.523-33.13 53.514-30.68 83.864 1.7 21.031 13.07 34.803 27.53 47.968 6.08 5.535 11.01 9.452 11.34 18.438.51 14.27-4.78 29.372-9.15 42.602-15.61 47.35-37.78 93.136-62.44 135.886-12.32 21.364-25.64 42.663-41.98 60.887-10.7 11.968-25.13 26.21-41.46 26.194-18.9 0-38.9-7.198-57.27-12.58-34.31-10.059-68.21-21.687-101.97-33.616a4387 4387 0 0 1-232.049-89.504c-53.965-22.627-109.076-45.288-159.812-75.37a179.4 179.4 0 0 1-27.892-20.571c-9.251-8.166-20.73-11.82-32.37-14.544-72.243-16.906-151.39-3.927-223.934 4.212-18.414 2.062-36.827 4.135-55.292 5.579-15.874 1.241-34.878 4.802-50.306-.547-30.401-10.529-3.825-49.336 7.411-65.148 39.558-55.675 90.594-102.778 137.9-150.867 22.492-22.901 45.155-45.742 66.424-69.939 11.075-12.58 32.914-33.036 32.841-49.478Z"/>
    <path d="M546.563 419.251c-12.125-19.846-33.398-34.514-51.056-48.319-25.412-19.873-51.622-38.642-77.438-57.952-24.411-18.26-48.873-36.728-71.479-57.465-13.784-12.645-31.08-27.767-37.609-46.47-14.163-40.539 62.03-34.389 80.84-35.449 46.762-2.625 99.779-3.226 143.041-24.57 27.014-13.329 38.112-35.432 32.35-66.12-1.991-10.616-5.58-19.68-1.037-30.243 5.253-12.225 17.337-19.846 28.414-25.226 34.7-16.855 75.716-20.436 113.33-23.415 38.859-3.078 79.346-5.249 116.955-2.996 15.039.896 32.35-4.194 47.234-8.097 22.902-6.014 45.57-12.952 68.357-19.403 46.311-13.121 93.825-25.761 142.005-27.2 34.78-1.038 71.05 4.593 99.99 26.358 29.32 22.07 42.33 56.284 58.6 88.808 28.08 56.23 66.02 124.596 131 136.476 9.85 1.804 19.32.826 29.17 1.269 5.06.224 10.82.934 13.39 6.199 6.66 13.668-11.6 38.658-17.74 49.128-16.98 28.932-36.07 56.448-53.87 84.823-14.13 22.53-32.04 47.564-37.51 74.271-6.63 32.409 36.71 55.469 51.95 78.289 26.42 39.571-23.64 62.118-48.32 80.985-28.34 21.661-51.73 61.177-26.33 94.691 9.72 12.815 21.68 20.452 26.02 37.176 6.79 26.155 1.66 56.044-3.85 81.898-8.3 38.866-21.43 77.311-39.28 112.437-12.79 25.149-34 64.583-65.07 61.626-20.92-1.974-42.18-9.185-62.55-15.56-30.49-9.54-60.6-20.414-90.55-31.709-69.135-26.002-137.507-54.672-204.536-86.206-45.736-21.524-173.312-109.485-182.911-112.623-28.622-9.349-61.164-7.703-90.673-6.255-39.253 1.925-78.308 6.911-117.333 11.531-18.577 2.187-37.246 4.86-55.921 5.937-13.292.765-30.748 1.421-42.391-6.73-22.725-15.904 2.593-52.293 13.064-67.689 32.076-47.197 72.651-88.07 110.696-129.861 18.669-20.518 37.624-41.003 54.572-63.167 6.835-8.95 23.97-26.92 16.476-39.177Z"/>
    <path d="M563.337 409.073c-33.113-39.714-78.815-69.25-118.26-102.418-19.797-16.652-39.719-33.758-56.794-53.593-8.882-10.313-19.973-23.356-21.685-37.733-4.573-38.462 64.101-33.261 84.655-34.721 39.74-2.833 84.634-4.982 120.687-24.609 22.027-11.998 32.874-31.691 28.757-57.574-1.825-11.484-4.667-21.24 0-32.517 4.729-11.424 14.581-19.485 24.558-25.528 28.669-17.379 64.297-22.935 96.575-27.075a739 739 0 0 1 114.143-5.633c33.393.925 66.625-9.471 99.23-16.324 43.193-9.072 87.167-16.996 131.367-15.799 34.91.952 70.09 8.428 99.93 28.295 30.33 20.234 48.56 50.52 64.99 83.2 24.85 49.405 55.82 115.608 110.33 134.371 7.93 2.735 15.32 3.035 23.49 3.511 3.98.23 9.11.301 11.08 4.67 4.73 10.522-12.79 30.92-17.68 38.03-15.6 22.694-32.52 44.367-48.52 66.761-14.93 20.907-31.2 42.694-40.48 67.194-14.76 39.019 32.44 61.834 31.12 99.015-.83 23.084-21.78 39.637-38.37 51.089-20.43 14.081-49.85 23.34-60.08 49.037-7.61 19.14 4.34 30.28 13.54 44.805 15.6 24.609 16.66 57.968 15.04 86.454-2.19 38.494-10.74 77.557-25.29 112.939-6.6 16.04-14.68 32.725-26.57 45.182-11.15 11.676-21.69 14.667-36.59 12.277-45.58-7.328-91.61-27.753-135.33-45.997-54.928-22.924-109.098-48.233-161.651-76.709-35.835-19.419-72.479-39.965-103.933-66.794-8.198-6.994-16.593-14.596-22.587-23.821-4.532-6.935-6.456-12.66-14.093-16.62-22.639-11.73-54.129-8.662-78.386-7.443-38.786 1.942-77.385 7.11-115.932 11.763-22.493 2.735-64.867 11.337-82.829-9.296-15.504-17.817 3.204-48.196 12.761-63.891 24.173-39.691 55.269-74.527 84.12-110.396 13.223-16.439 26.964-33.003 37.884-51.279 2.789-4.66 7.259-10.834 8.026-16.494.861-6.486-3.157-11.435-7.223-16.329Z"/>
    <path d="M566.184 418.318c-30.598-35.114-67.46-63.962-100.308-96.821-14.729-14.733-29.602-30.188-40.825-48.161-6.036-9.665-12.446-21.832-10.781-33.845 4.776-34.479 61.257-31.365 84.076-33.384 33.906-2.966 72.858-5.955 102.839-24.546 19.639-12.177 27.003-30.161 23.337-53.355-3.937-24.88 4.864-42.94 24.893-56.82 25.11-17.387 56.807-24.474 85.963-29.51a560.6 560.6 0 0 1 106.283-7.995c34.606.7 68.134-5.418 102.512-9.397 45.58-5.27 92.627-7.87 137.687 2.933 39.24 9.408 74.68 30.14 101.25 62.2 27.75 33.461 41.49 75.618 64.02 112.637 14.05 23.09 33.65 53.634 59.91 62.61 8.76 2.993 24.73-1.046 17.73 13.682-4 8.423-11.48 15.811-17.39 22.696-9.56 11.126-19.42 21.946-29.14 32.919-20.7 23.391-42.87 47.28-58.39 74.979-19.55 34.873 9.51 61.712 5.97 97.072-1.9 19.029-14.44 34.217-27.71 46.148-8.58 7.727-17.97 14.421-27.56 20.665-10.02 6.524-21.87 11.493-30.6 19.927-12.45 12.002-7.04 26.21-4.71 41.725a354 354 0 0 1 2.69 82.465c-2.84 33.708-9.51 68.379-23.55 99.01-5.46 11.926-12.38 24.568-22.65 32.564s-20.9 7.449-32.67 5.041c-34.92-7.115-69.763-23.671-102.886-39.361-41.458-19.643-82.1-41.594-120.913-66.567-26.791-17.24-53.67-35.864-76.084-59.239-6.519-6.802-12.721-14.087-17.736-22.219-3.444-5.577-5.29-12.774-10.279-16.966-15.61-13.086-46.949-9.178-65.256-8.418-36.535 1.516-72.495 8.724-108.984 10.475-19.915.958-51.103 3.366-65.728-14.525-13.753-16.818-1.296-43.306 6.923-59.512 16.155-31.863 37.858-60.251 57.311-89.87 7.997-12.188 16.761-24.94 21.942-38.857 4.605-12.402-3.345-21.377-11.186-30.38Z"/>
    <path d="M573.71 418.892c-24.355-30.899-53.715-58.328-78.246-89.73-14.359-18.39-39.087-49.306-27.982-75.232 12.182-28.489 54.648-29.265 79.194-31.561 29.215-2.732 63.524-6.465 88.527-24.254 7.907-5.623 14.644-13.066 17.499-22.871 3.057-10.493-.285-19.674-.72-30.178-.912-22.035 11.555-39.725 28.054-51.874 23.319-17.176 52.477-25.297 80.018-30.96a462.5 462.5 0 0 1 94.709-9.4c30.376.11 60.431-.6 90.838-1.42 39.766-1.093 80.089.672 118.669 11.815 37.99 10.985 72.54 31.572 99.68 61.854 26.47 29.549 44.33 65.668 59.98 102.458 8.88 20.882 23.87 52.087 45.04 62.635 9.42 4.694 18.66 4.372 8.65 16.581-12.61 15.373-29.6 27.708-44.2 40.857-21.07 18.974-42.66 38.32-60.34 60.88-11.29 14.406-16.32 28.385-15.55 47.038.6 14.209 3.33 28.27 1.95 42.534-3.23 33.479-28.22 56.437-50.31 77.817-14.22 13.75-27.2 24.237-34.51 43.796-8.66 23.118-12.29 48.268-18.07 72.27-6.36 26.358-13.69 53.776-27.56 76.992-12.34 20.668-27.36 29.937-49.825 24.368-35.045-8.678-69.587-30.058-100.699-49.836-31.666-20.122-62.788-42.747-89.029-70.406-14.167-14.936-23.837-32.473-36.418-48.518-15.825-20.144-51.627-12.515-72.904-10.81-35.319 2.831-146.454 24.013-136.199-44.595 4.28-28.637 21.136-55.065 33.464-80.336 5.109-10.487 12.504-23.073 13.659-35.091 1.26-13.089-10.047-25.522-17.369-34.823Z"/>
    <path d="M586.568 421.516c-18.611-28.001-40.884-54.455-56.854-84.698-10.36-19.586-20.533-45.755-7.169-66.478 15.084-23.386 48.344-28.838 72.783-31.818 25.179-3.067 55.238-5.648 75.818-23.38 6.547-5.649 11.945-13.266 12.949-22.386.969-8.749-1.766-17.497-.859-26.404 2.03-20.002 13.524-36.482 28.344-48.435 43.837-35.36 109.083-43.224 161.975-44.148 26.475-.459 53.721 1.952 80.366 3.68 34.576 2.242 69.199 7.054 102.179 18.651 70.11 24.649 117.1 79.317 149.92 147.343 10.33 21.413 18.23 44.58 34.42 61.787 8.35 8.886 6.52 15.267-2.01 23.37-13.34 12.664-29.61 22.342-44.41 32.911-21.06 15.032-42.56 30.287-61.19 48.293-12.83 12.412-21.94 24.37-24.71 42.983-1.97 13.27-1.51 26.792-2.7 40.145-2.26 25.365-9.99 50.54-23.68 71.58-10.88 16.677-23.83 31.834-37.21 46.286-17.4 18.815-32.12 37.93-45.331 60.261-17.519 29.56-42.133 84.085-83.396 69.656-45.511-15.923-88.167-56.38-117.367-95.579-9.805-13.161-17.855-29.302-31.079-39.008-19.797-14.506-39.885-13.998-63.433-13.938-35.254.082-111.968 8.159-112.797-47.57-.327-22.079 8.728-42.956 13.063-64.193 4.89-23.785-4.91-39.828-17.622-58.911Z"/>
    <path d="M600.431 424.012c-18.41-36.494-59.69-96.462-28.293-137.044 16.585-21.446 45.919-29.506 70.527-34.309 19.803-3.885 43.685-5.343 58.648-21.812 10.998-12.108 6.116-29.73 10.329-44.887 5.23-18.791 17.233-34.167 31.983-45.724 41.218-32.298 98.529-42.21 148.113-44.319 51.496-2.185 108.237 8.038 156.692 27.703 60.42 24.528 105.69 70.973 137.35 129.788 5.84 10.857 11.14 21.998 16.75 32.987 3.77 7.371 9.36 14.501 12.33 22.255 4.94 12.928-.88 23.495-10.22 31.921-13.44 12.13-29.94 20.763-45.25 29.866-20.95 12.458-42.36 24.692-61.84 39.309-13.09 9.835-26.79 20.43-31.48 37.494-3.2 11.639-3.86 23.966-3.75 36.019.25 25.845-1.03 46.745-12.47 70.416-18.81 38.86-47.74 73.803-78.303 102.877-23.986 22.818-61.939 58.263-96.886 43.008-31.356-13.661-49.698-46.358-70.356-72.793-10.044-12.851-21.327-24.588-34.585-33.729-16.714-11.524-32.449-16.36-52.252-18.245-33.331-3.174-83.588-4-93.891-46.182-3.804-15.567-1.633-31.692-3.628-47.461-2.607-20.851-10.231-38.729-19.518-57.138Z"/>
    <path d="M619.573 425.364c-13.109-39.932-30.331-90.258 1.331-125.748 15.336-17.192 36.908-26.804 57.786-33.986 14.953-5.147 38.695-6.662 47.863-22.488 6.733-11.645 7.665-27.711 13.756-40.189 8.37-17.154 21.049-31.283 35.925-42.344 38.752-28.822 89.225-39.959 135.254-43.148 100.012-6.92 201.782 48.192 255.292 138.865 15.96 27.027 36.56 55.795 10.77 83.408-28.15 30.124-70.57 44.237-104.17 65.642-12.84 8.172-29.2 17.997-36.36 32.793-4.31 8.895-4.61 20.054-4.81 29.845-.51 24.939-2.48 47.366-11.98 70.636-14.68 35.961-38.085 69.137-64.609 96.313-23.131 23.697-56.118 51.545-89.712 34.462-25.757-13.129-42.092-40.993-62.106-61.534-22.271-22.876-49.815-38.291-80.062-45.823-29.425-7.308-61.697-12.237-77.204-43.285-5.32-10.651-10.877-24.441-12.871-36.229a380 380 0 0 0-14.093-57.19Z"/>
    <path d="M640.917 425.645c-6.065-40.323-6.739-82.368 21.438-114.148 13.151-14.827 29.774-25.36 46.584-34.904 12.367-7.022 25.139-12.945 34.376-24.457 8.558-10.659 15.063-23.035 23.326-33.973 10.899-14.495 23.94-27.043 38.621-37.162 36.803-25.316 81.572-37.156 124.402-41.263 20.734-1.997 43.225-3.036 63.819 2.406 19.887 5.25 39.557 13.552 57.837 23.232 38.88 20.558 72.57 50.665 97 88.729 16.74 26.109 25.8 51.496 4.11 77.982-24.45 29.855-62.78 46.328-94.38 65.705-21.67 13.289-45.96 26.316-50.01 54.558-3.23 22.472-5.84 43.801-14.184 65.043-12.413 31.331-30.663 59.713-53.669 83.462-21.04 21.635-47.657 39.995-77.752 28.439-23.843-9.172-42.343-29.719-63.175-44.409-23.217-16.406-48.724-25.452-75.585-32.726-24.139-6.563-46.868-16.648-62.47-38.059-3.193-4.375-6.547-9.138-9.009-14.033-3.141-6.246-2.897-12.436-3.514-19.437-1.607-18.474-5.023-36.735-7.765-54.985Z"/>
    <path d="M664.451 422.349c.518-38.3 9.248-74.498 33.158-104.346 10.223-12.769 22.429-23.286 33.677-34.987 9.056-9.432 17.615-18.197 28.029-25.97 24.703-18.405 44.78-42.223 71.032-58.612 35.044-21.911 75.186-34.023 115.018-38.865 19.45-2.366 39.541-3.194 59.215-.52 16.9 2.295 33.09 10.353 48.1 18.597 29.43 16.148 58.01 39.1 77.11 68.138 42.13 64.019-40.93 110.564-83.56 137.821-19.6 12.539-49.558 27.06-57.588 51.897-5.741 17.742-9.238 35.786-16.631 52.981-19.859 46.177-60.172 100.49-113.894 93.259-22.988-3.089-43.94-15.639-65.4-24.064-22.097-8.677-44.904-13.514-67.871-18.822-21.465-4.957-38.573-12.012-52.437-30.927-6.626-9.033-6.041-19.846-6.632-30.928-.963-18.202-1.559-36.509-1.326-54.652Z"/>
    <path d="M685.881 417.443c8.63-57.811 40.684-120.925 87.816-154.499 55.442-39.493 115.504-72.75 181.745-82.311 30.71-4.433 64.348-6.614 93.328 7.883 22.06 11.025 47.67 27.506 59.81 50.683 29.69 56.691-36.35 101.82-73.98 128.048-20.26 14.119-46.051 27.878-61.321 48.496-8.859 11.955-13.382 27.769-20.535 40.899-21.675 39.789-57.355 71.882-101.8 77.621-20.55 2.652-41.25-.628-61.645-3.236-20.876-2.667-42.012-4.116-62.76-7.838-16.561-2.974-36.079-8.008-42.178-26.709-7.692-23.565-2.002-55.428 1.52-79.037Z"/>
    <path d="M706.895 408.157c12.587-54.353 39.241-107.371 84.05-139.818 23.762-17.206 51.346-29.083 77.829-40.818 30.02-13.299 61.385-23.623 93.419-28.743 39.887-6.379 104.487-12.129 125.327 35.823 20.68 47.596-31.59 89.721-62.49 113.727-19.82 15.378-41.027 29.493-59.96 46.305-10.267 9.114-18.175 19.645-26.863 30.335-24.011 29.619-58.242 53.067-93.132 65.584-33.816 12.135-75.649 17.507-111.344 13.497-15.402-1.723-26.411-7.539-31.069-24.072-6.454-22.983-.971-49.368 4.233-71.82Z"/>
    <path d="M727.776 393.518c12.504-47.856 39.475-91.565 78.817-120.287 44.099-32.198 100.885-50.089 153.077-59.187 27.743-4.833 87.86-17.935 102 19.563 14.14 37.499-26.73 74.453-50.26 94.796-28.558 24.652-59.346 48.455-90.097 70.573-26.718 19.232-55.227 38.894-84.166 53.745a297 297 0 0 1-50.805 20.555c-12.944 3.858-29.405 9.611-42.976 6.74-34.231-7.252-21.571-63.617-15.59-86.498Z"/>
    <path d="M753.55 379.187c27.437-90.5 114.363-135.009 198.059-150.524 19.449-3.601 73.971-16.585 84.841 11.061 10.53 26.804-22.97 58.592-38.654 73.652-48.604 46.669-108.653 81.271-165.555 115.551-17.761 10.699-49.794 33.919-71.826 23.208-23.922-11.651-12.549-54.182-6.865-72.948Z"/>
    <path d="M781.654 361.768c23.86-66.646 93.259-104.871 157.064-117.472 15.628-3.083 55.318-12.683 67.152 5.915 10.96 17.205-15.184 42.134-24.963 52.04-21.773 22.058-47.575 40.23-73.066 57.697-23.569 16.16-47.393 32.725-72.193 46.392-13.062 7.194-37.561 22.545-52.405 11.436-15.981-11.95-6.887-41.209-1.589-56.008Z"/>
    <path d="M812.623 342.297c18.185-43.523 66.892-71.786 109.856-81.177 11.561-2.522 36.548-9.064 46.301 2.56 8.978 10.704-5.492 26.397-11.914 33.644-28.463 32.124-70.145 60.819-108.334 78.442-9.602 4.431-26.863 13.128-36.741 4.185-10.131-9.184-3.346-27.661.832-37.654Z"/>
    <path d="M845.476 324.014c10.247-21.611 37.03-37.917 59.216-43.107 15.614-3.65 34.382-.497 20.774 18.315-13.518 18.669-38.6 35.72-59.858 43.279-16.22 5.764-28.932.077-20.132-18.487ZM14.482 473.7c-.658-42.697-22.16-87.071-11.54-130.577 8.72-35.731 52.62-38.714 78.956-54.903 20.928-12.861 32.805-35.643 44.123-57.503 10.169-19.625 19.303-39.839 30.015-59.142 6.935-12.478 18.843-36.982 33.882-37.425 14.397-.426 27.598 18.669 35.961 29.957 10.904 14.713 20.571 30.398 31.16 45.346 17.843 25.214 39.253 43.878 63.767 61.541a2143 2143 0 0 0 85.074 58.235c21.218 13.828 42.581 27.553 62.976 42.747 12.793 9.533 41.028 27.421 41.158 44.997.061 8.386-7.468 17.674-12.545 24.378-8.591 11.348-18.382 21.723-28.204 31.874-18.294 18.909-37.365 36.96-56.228 55.23-24.483 23.712-47.87 47.036-69.393 73.954-22.253 27.864-43.512 56.645-65.206 85.034-14.692 19.231-29.369 40.828-50.561 52.63-26.543 14.751-48.33-.804-75.174-.984-23.091-.158-21.388-56.629-24.323-72.331-2.944-15.893-9.434-30.688-11.949-46.62-3.136-19.887-3.177-40.233-3.949-60.333-.936-24.586-1.309-47.991-26.206-57.367-14.17-5.327-29.498-6.447-44.164-9.637-9.502-2.071-27.423-5.611-27.63-19.101Z"/>
    <path d="M25.834 466.105c-2.42-35.791-16.72-81.6-3.198-118.546 11.553-31.572 47.683-35.665 72.012-52.249 20.084-13.68 29.024-36.065 39.064-58.056 8.054-17.641 15.865-35.451 25.007-52.529 6.738-12.585 17.026-33.831 31.036-36.436 12.594-2.342 26.101 16.415 33.171 25.958 10.314 13.931 19.135 29.061 28.247 43.873 16.01 26.018 32.403 49.415 55.836 68.528 23.535 19.195 49.284 33.547 75.308 48.485 20.358 11.688 40.613 23.715 59.956 37.208 14.409 10.046 35.125 22.905 41.718 40.819 5.219 14.172-21.25 37.69-29.056 45.99-16.067 17.067-33.093 33.088-50.15 49.011-20.794 19.403-42.252 36.37-60.615 58.504-32.844 39.571-60.298 88.85-102.56 118.261-25.49 17.739-53.856 22.275-82.207 19.621-11.226-1.05-13.921-17.777-15.336-27.534-2.353-16.207-2.648-32.693-4.457-48.966-1.695-15.234-5.458-29.706-8.49-44.644-3.068-15.135-3.929-30.642-6.188-45.881-1.4-9.461-2.784-20.47-8.905-28.075-6.333-7.874-16.782-11.174-25.914-13.68-17.15-4.662-62.569-4.405-64.28-29.662Z"/>
    <path d="M40.444 451.122c-4.07-32.853-9.77-73.772 6.814-104.04 13.555-24.75 42.464-30.088 63.113-46.215 17.175-13.41 23.662-34.738 32.187-54.558 6.995-16.257 14.027-32.586 22.505-48.056 6.43-11.732 14.717-27.64 27.483-31.733 10.916-3.497 23.247 12.17 29.299 19.968 10.303 13.29 18.704 28.181 27.047 42.875 13.649 24.044 26.208 49.728 45.633 69.286 18.875 18.978 41.298 30.181 64.14 42.777 17.496 9.65 34.883 19.672 51.368 31.181 12.658 8.831 28.344 19.295 34.94 33.99 5.704 12.672-8.94 27.672-16.257 36.612-12.082 14.755-25.492 28.291-38.715 41.881-14.27 14.662-30.076 28.187-43.885 43.209-29.039 31.613-52.239 66.613-88.03 90.832-23.179 15.689-54.37 29.941-81.77 27.378-19.705-1.847-18.409-47.87-20.302-62.575-3.111-24.044-9.121-49.307-18.668-71.455-8.198-18.979-27.68-24.831-45.601-29.088-11.227-2.673-22.993-4.115-33.851-8.246-12.57-4.787-15.744-10.252-17.45-24.023Z"/>
    <path d="M54.073 435.723c-2.424-27.776-1.879-60.621 13.82-84.648 13.76-21.046 38.256-26.587 55.678-43.166 13.598-12.934 18.938-34.023 26.251-51.128 8.937-20.914 21.46-59.542 44.006-67.412 20.972-7.316 42.905 39.422 50.498 53.36 12.019 22.059 22.072 46.25 36.651 66.622 12.554 17.538 29.375 27.233 47.228 37.652 22.763 13.307 57.323 29.085 69.493 55.019 9.072 19.325-20.427 48.054-30.501 61.444-10.535 13.986-18.471 30.565-29.344 44.058-17.158 21.292-44.96 38.436-67.915 51.518-22.317 12.726-51.297 26.811-76.614 25.973-16.639-.548-19.805-27.667-23.355-40.913-5.086-18.832-11.848-35.706-26.375-48.515-14.786-13.038-32.214-19.182-50.534-24.558-9.404-2.74-20.132-4.878-28.545-10.413-9.295-6.023-9.508-14.217-10.442-24.893Z"/>
    <path d="M70.678 419.713c.135-23.996 5.334-49.585 20.75-68.094 12.839-15.418 32.937-20.572 45.228-36.333 9.736-12.478 14.692-29.995 21.21-44.486 7.972-17.757 19.244-48.777 39.067-54.94 19.348-5.999 36.46 28.168 43.878 41.688 10.864 19.824 19.658 40.837 30.62 60.607 8.587 15.51 19.089 25.507 33.072 35.503 16.414 11.742 39.315 24.749 48.084 44.175 6.321 14.065-8.981 36.54-14.537 48.93-3.724 8.323-7.133 16.776-9.006 25.796-1.459 7.025-1.604 13.525-5.83 19.557-10.641 15.172-33.972 17.152-49.802 22.153-21.023 6.637-43.33 14.18-65.331 15.619-13.522.9-20.423-12.249-28.141-21.498-9.121-10.935-22.033-18.799-33.31-27.05-14.883-10.908-31.08-17.692-47.836-24.64-7.558-3.136-16.435-6.212-22.29-12.445-6.115-6.463-5.872-15.881-5.826-24.542Z"/>
    <path d="M88.119 405.468c2.672-20.154 10.999-39.416 25.063-53.663 10.782-10.938 25.1-17.096 33.753-30.239 8.063-12.25 13.681-26.18 20.341-39.278 7.048-13.848 17.518-36.993 33.773-40.761 17.519-4.058 31.013 19.289 38.486 32.229 9.44 16.352 16.612 33.946 25.053 50.862 6.359 12.608 14.47 24.139 24.064 34.209 10.061 10.616 23.706 20.783 28.797 35.38 4.5 12.929-3.92 28.57-5.406 41.68-1.59 14.006 1.196 28.718-7.618 40.744-18.176 24.802-63.792 20.203-89.871 20.733-25.731.547-46.419-14.629-67.241-29.068-13.754-9.532-28.077-17.605-42.178-26.486-14.375-9.063-19.367-18.606-17.016-36.342Z"/>
    <path d="M104.323 393.932c7.902-29.196 32.581-44.714 50.224-66.779 14.436-18.063 25.26-55.47 49.572-60.418 27.602-5.616 44.126 43.948 53.722 63.073 10.648 21.211 29.612 38.464 37.499 60.917 4.145 11.785.585 22.781-1.622 34.561-2.42 12.934-4.239 26.159-12.591 36.57-16.441 20.488-48.551 20.345-71.676 20.909-23.939.586-45.116-13.454-64.189-27.467-20.228-14.839-49.032-31.424-40.939-61.366Z"/>
    <path d="M117.558 386.015c8.904-20.801 27.614-37.713 42.797-53.677 12.672-13.309 26.304-40.102 45.626-42.012 22.708-2.252 36.471 26.358 45.406 43.9 8.794 17.238 21.467 35.439 26.336 54.358 5.078 19.708-8.445 46.25-21.341 60.196-14.384 15.551-37.917 21.297-58.11 20.676-21.143-.631-40.542-13.483-56.555-26.814-17.119-14.251-34.514-32.479-24.159-56.627Z"/>
    <path d="M129.838 382.099c8.505-17.301 23.248-31.937 36.842-44.992 10.49-10.079 25.969-27.217 41.104-27.637 16.649-.463 30.76 13.922 37.379 28.667 6.525 14.543 13.4 32.777 14.377 48.732 2.121 34.744-41.062 73.665-73.489 70.498-30.745-3.004-73.171-40.796-56.213-75.268Z"/>
    <path d="M141.195 380.191c11.734-22.542 40.234-54.679 66.619-55.443 30.286-.872 37.889 34.891 33.941 60.808-4.01 26.451-38.928 64.738-66.77 59.564-27.174-5.048-47.695-38.194-33.79-64.929Z"/>
    <path d="M153.187 376.546c9.934-18.874 31.133-42.449 53.242-43.163 26.345-.844 25.848 29.349 19.874 48.142-6.212 19.512-33.571 52.838-56.639 47.576-22.43-5.137-25.997-34.464-16.477-52.555Z"/>
    <path d="M163.631 374.374c6.557-13.468 22.968-30.489 38.57-31.034 19.069-.655 15.362 23.293 10.435 34.852-5.856 13.754-25.486 37.653-41.96 33.78-16.219-3.813-12.455-26.501-7.045-37.598Zm897.049 769.496c-42.2 27.03-89.92 49.33-134.915 72-65.755 33.13-132.479 65.36-201.57 90.04-37.043 13.22-85.043 32.29-124.79 21.93-14.532-3.79-27.785-15.24-40.815-22.69-17.967-10.26-36.198-20.02-54.398-29.79-36.509-19.6-73.132-39.01-109.015-59.86-17.278-10.05-34.043-22.7-52.031-31.27-10.511-5.01-23.09-2.67-34.322-2.35-26.018.74-52.021 2.14-78.023 3.33-31.805 1.45-63.683 3-95.524 2.43-14.361-.27-49.534 2.42-57.44-10.63-4.253-7.03 5.772-19.7 10.419-25.57 8.533-10.77 18.34-20.49 28.018-30.1 22.381-22.23 46.15-43.41 66.045-68.24 10.221-12.77 23.614-28.37 16.941-45.79-6.735-17.608-18.402-32.851-25.521-50.395-8.196-20.189-11.595-41.198-15.465-62.606-2.865-15.823-9.537-29.841-15.811-44.428-6.932-16.123-14.113-32.383-18.926-49.386-3.181-11.231-8.315-31.436 2.813-38.547 15.812-10.111 45.462-1.924 63.486 1.055 24.909 4.11 49.637 9.346 74.479 13.855 18.035 3.279 36.131 6.875 54.466 7.258 29.557.617 59.212-1.52 88.69-3.509 54.585-3.684 108.779-8.679 163.548-8.679 47.984 0 158.87 58.572 184.825 68.886 51.809 20.588 104.995 40.105 154.021 67.497 13.263 7.417 33.675 17.298 40.654 32.563 4.305 9.406 2.326 14.844 12.48 20.905 13.854 8.269 31.603 11.515 46.941 15.216 24.69 5.957 49.58 11.001 74.39 16.396 50.18 10.879 100.02 23.189 150 35.029 15.11 3.58 33.38 4.38 47.79 10.68 9.28 4.05 8.32 9.15 1.13 15.31-12.6 10.8-30.27 16.79-45.16 22.95-21.82 9.02-43.99 17.07-66.17 25.01-22.19 7.94-44.49 15.63-66.68 23.58-14.66 5.23-31.38 9.49-44.56 17.92Z"/>
    <path d="M1025.95 1137.93c-44.647 27.08-94.207 48.65-141.984 69.69-61.147 26.95-123.677 52.21-188.104 69.06-37.828 9.88-82.46 20.79-121.112 9.46-13.789-4.05-24.091-13.14-35.911-21.16-13.473-9.16-27.464-17.55-41.455-25.81a2542 2542 0 0 0-87.316-49.25c-15.577-8.43-32.723-19.71-50.321-22.63-13.991-2.33-29.885 1.04-43.938 2.02-25.308 1.76-50.612 3.58-75.931 5.12-29.215 1.78-58.514 3.42-87.792 3.14-16.318-.16-44.331 2.46-55.871-8.67-10.069-9.71 26.588-44.82 33.035-51.49 20.131-20.83 41.305-40.67 60.043-62.95 11.073-13.13 24.557-29.11 29.226-46.52 3.974-14.835-3.695-31.742-8.224-45.458-5.664-17.18-10.234-34.99-16.815-51.809-5.861-14.986-15.189-28.335-23.381-41.958-9.012-14.985-18.137-30.217-24.827-46.566-4.099-10.059-10.882-26.906-2.736-36.495 9.41-11.056 38.419-3.831 50.342-2.255 24.19 3.24 48.192 8.057 72.216 12.37 39.9 7.158 77.941 13.42 118.572 11.92 52.913-1.959 105.774-6.568 158.676-9.118 19.536-.953 39.383-2.868 58.934-1.834 11.209.597 19.743 4.209 26.262 12.359 8.903 11.121 29.408 17.279 43.668 23.66 22.236 9.945 44.751 19.195 67.205 28.565 49.29 20.579 99.529 40.414 146.275 67.03 14.789 8.418 31.724 17.804 42.663 31.712 6.104 7.755 4.565 15.226 8.291 23.469 4.933 10.842 21.152 15.735 30.848 19.278 18.712 6.86 38.192 11.45 57.522 15.75 43.73 9.73 87.57 16.13 132.02 20.84 10.41 1.1 51.43 4.89 29.89 23.17-23.8 20.2-58.17 30.1-86.19 41.49-25.24 10.23-50.5 19.76-73.78 33.87Z"/>
    <path d="M964.248 1132.92c-41.967 23.82-88.457 41.59-133.656 58.6-54.848 20.62-111.07 39.01-168.594 49.31-36.136 6.47-75.976 11.44-111.868.69-24.511-7.33-43.472-27.16-65-40.8s-43.927-26.44-66.996-37.11c-14.318-6.63-29.72-13.3-45.65-12.42-38.735 2.12-77.424 7.17-116.2 9.62-25.653 1.64-51.357 2.99-77.087 2.59-15.515-.24-36.831.74-50.567-7.87-15.184-9.52 65.663-90.85 73.304-100 19.158-22.95 42.356-53.41 38.652-86.053-3.543-31.203-18.898-54.499-36.266-78.947-9.856-13.908-41.463-51.062-29.75-69.149 6.692-10.339 28.749-6.76 39.228-6.055 20.651 1.388 41.189 4.371 61.731 6.962 29.953 3.754 60.73 9.552 90.813 11.251 20.947 1.181 42.018-.399 63.002-.431 30.087-.044 60.175.196 90.262.48 25.264.241 50.739.001 75.914 2.558 15.651 1.574 27.53 5.109 38.756 15.099 9.768 8.688 24.506 13.776 36.956 19.301 20.563 9.12 41.396 17.574 62.162 26.164 43.476 17.99 87.451 35.602 129.065 58.084 18.996 10.257 50.936 24.618 55.392 49.486 1.608 8.97 2.791 12.84 11.091 17.94 11.781 7.24 25.891 10.5 39.108 13.34 30.814 6.61 62.52 5.62 93.28 12.15 12.53 2.7 28.89 8.51 14.58 21.82-16.68 15.57-40.98 24.13-60.97 33.75-9.98 4.8-20.262 9.29-29.74 15.15-7.278 4.51-13.508 10.3-20.952 14.49Z"/>
    <path d="M884.762 1125.49c-38.773 19.34-80.88 33.41-122.232 46.09-45.93 14.07-92.969 25.72-140.629 30.68-32.909 3.43-67.973 4.44-99.914-6.07-20.199-6.65-33.893-20.63-51.275-32.36-26.233-17.73-54.616-31.77-86.132-28.35a1974 1974 0 0 1-106.346 8.6c-21.453 1.16-42.989 2.02-64.467 1.22-13.58-.5-31.076-1.35-42.89-7.84-15.807-8.7 43.568-74.85 50.969-84.49 18.356-23.91 31.812-48.99 39.674-78.618 6.412-24.173-6.687-43.175-20.199-61.256-8.401-11.229-35.546-39.472-27.047-54.054 4.662-8.041 20.024-7.625 28.274-8.036 15.725-.777 31.516.033 47.241.389 23.218.548 47.934-3.215 70.956-.186 51.021 6.705 101.913 12.511 153.251 17.107 28.299 2.53 56.77 4.831 84.816 9.712 10.069 1.753 20.469 3.609 30.009 7.575 6.137 2.547 9.483 6.886 14.663 10.446 24.694 16.948 56.93 25.669 84.743 36.531 36.975 14.439 74.147 28.653 110.138 45.711 18.931 8.972 45.371 19.281 58.397 37.589 3.936 5.54 2.258 9.96 4.734 15.28 2.849 6.14 11.503 7.97 17.092 9.67 12.684 3.89 65.777 9.76 41.31 32.54-11.674 10.85-26.549 17.82-39.71 26.34-4.765 3.09-9.411 6.2-13.383 10.37-6.645 6.99-13.192 10.98-22.043 15.41Z"/>
    <path d="M800.069 1117.11c-76.542 31.3-166.245 52.63-249.695 48.49-27.75-1.37-57.608-5.98-81.664-21.73-14.184-9.3-25.519-19.8-42.558-23.16-12.3-2.42-25.545.33-37.917 1.32-17.921 1.45-35.853 2.74-53.8 3.79-22.249 1.27-44.571 2.26-66.862 1.73-15.928-.38-37.923.05-51.76-8.98-16.519-10.77 25.53-61.29 31.447-70.29 14.339-21.82 24.392-42.96 28.025-69.251 1.07-7.661 4.671-15.513 4.204-23.235-.488-7.885-5.091-14.906-9.342-21.106-5.558-8.126-24.844-27.399-19.322-37.309 3.052-5.473 14.506-6.162 20.443-7.322 11.138-2.189 22.437-3.366 33.642-5.106 19.011-2.966 37.886-12.624 56.965-12.351 51.303.723 103.348 17.512 153.623 26.732 29.889 5.5 59.98 10.49 89.506 17.938 9.342 2.359 18.964 4.799 27.844 8.799 6.197 2.791 10.178 7.765 15.918 10.89 22.01 12.001 47.322 19.284 70.957 27.361 30.683 10.507 61.47 20.696 91.94 31.881 19.099 7.009 43.658 13.179 60.116 26.179 12.02 9.49 3.804 12.33-2.538 21.18-3.239 4.51-2.492 8.95-3.898 14.06-2.009 7.28-7.686 12.53-13.011 17.25-7.344 6.52-17.127 11.89-23.132 19.87-2.117 2.82-2.019 6.31-3.731 8.76-4.983 7.14-18.202 10.67-25.4 13.61Z"/>
    <path d="M718.689 1105.96c-62.122 19.68-131.243 30.88-196.909 25.68-22.847-1.81-45.833-6.02-67.116-15.26-9.683-4.2-16.951-8.87-27.561-9.12-24.619-.58-49.316 1.45-73.929 1.93-17.615.35-35.317.48-52.89-1.01-11.75-1-27.64-2.19-37.265-9.8-13.988-11.07 11.263-48.72 16.402-59.12 8.517-17.25 16.967-36.42 13.589-56.381-1.036-6.103-2.87-11.495-3.109-17.719-.228-5.348.41-10.286-1.388-15.399-2.223-6.339-12.107-16.175-8.709-22.011 2.316-3.985 9.186-4.171 13.755-5.446a134 134 0 0 0 21.635-8.113c7.356-3.525 13.62-8.972 21.241-11.884 12.371-4.719 26.219-5.162 39.223-5.141 51.885.088 104.428 10.889 154.997 22.182 26.334 5.879 52.812 12.146 78.405 21.064 7.771 2.709 16.578 5.43 23.412 10.433 4.264 3.115 7.154 7.018 11.998 9.361 41.379 20.002 89.218 27.43 133.145 41.874 11.434 3.76 74.799 22.76 41.669 40.64-20.127 10.86-41.394 15.79-59.76 30.65-5.595 4.52-9.325 8.26-11.512 15.15-1.44 4.59 2.026 2.26-2.813 7.05-5.869 5.77-19.272 8.09-26.51 10.39Z"/>
    <path d="M654.097 1094.32c-72.731 16.06-149.753 16.83-223.632 2.59-18.625-3.59-38.007-2.73-56.86-3.64-18.318-.87-50.886.94-64.19-13.92-9.648-10.77.82-33.67 4.441-45.72 4.614-15.35 8.645-31.22 1.07-46.127-4.436-8.733-10.514-17.045-15.273-25.696-2.275-4.132-6.961-10.463-5.008-14.376 3.231-6.457 18.349-9.175 25.684-12.221 23.446-9.732 48.273-12.215 73.339-12.145 46.298.127 92.836 6.807 138.251 15.867 20.895 4.17 42.08 8.619 62.232 15.867 11.403 4.099 19.814 12.007 30.703 16.696 35.061 15.108 72.731 23.18 108.395 36.995 10.322 4 48.88 17.32 29.456 33.02-18.806 15.2-46.236 13.39-65.791 27.69-2.213 1.64-4.951 3.6-6.234 6.25-.758 1.58.577 4.59 0 5.49-6.005 9.79-27.352 11.35-36.583 13.38Z"/>
    <path d="M606.975 1083.71c-37.313 5.4-75.446 6.73-113.387 7.07-20.74.19-43.525 1.59-63.818-3.96-12.465-3.41-24.504-6.4-37.354-8.55-13.826-2.31-36.087-4-44.506-16.55-6.29-9.38-1.979-28.65-1.751-40.06.244-12.5-2.186-21.779-10.554-30.729-5.261-5.636-29.397-26.094-26.608-31.993 2.654-5.62 19.472-6.481 26.743-7.941 22.983-4.632 46.273-6.245 69.65-5.993 36.207.384 72.548 4.281 108.189 10.976 14.735 2.782 29.963 5.663 44.039 11.222 9.479 3.748 17.384 10.394 26.8 14.268 26.967 11.113 55.481 18.66 82.542 29.97 8.684 3.64 36.98 13.33 30.197 28.25-5.656 12.47-24.895 16.26-34.347 24.61-16.081 14.25-35.329 16.44-55.835 19.41Z"/>
    <path d="M583.469 1076.54c-29.599 3.58-59.886 5.14-89.919 5.22-19.383.05-39.831.33-58.851-4.27-9.555-2.31-17.857-7.7-26.899-11.55-9.311-3.96-22.161-8.38-26.185-17.45-3.781-8.53-2.369-20.97-5.69-31.25-2.954-9.12-9.135-14.76-15.793-20.924-4.241-3.941-26.024-21.001-23.505-24.767 2.7-4.034 15.782-3.706 22.59-4.264a498 498 0 0 1 56.384-1.492c25.667.831 51.531 3.148 76.754 8.396 17.893 3.717 31.389 12.572 48.071 19.066 21.612 8.435 44 15.105 65.405 24.335 10.667 4.59 26.454 10.51 31.917 22.37 2.1 4.55 4.138 16.12 1.8 20.67-2.809 5.46-13.263 7.78-18.198 9.18-12.363 3.51-25.3 5.21-37.881 6.73Z"/>
  </g>
</svg>
